# xmcd
#
# Track frame offsets: 
#        150
#        12612
#        26296
#        38904
#        51109
#        63915
#        75772
#        88564
#        101086
#        113884
#        127219
#        138942
#        151661
#        164788
#        178178
#        190508
#        203940
#        217185
#        229873
#        242696
#        254692
#        267206
#        280331
#        293281
#        305060
#
# Disc length: 4230 seconds
#
# Revision: 3
# Processed by: cddbd v1.5.2PL0 Copyright (c) Steve Scherf et al.
# Submitted via: ExactAudioCopyFreeDBPlugin 1.0
#
DISCID=66108419
DTITLE=Big Bill Broonzy - All The Sides [JSP Records]
DYEAR=2005
DGENRE=Blues
TTITLE0=Please Be My So and So
TTITLE1=I.C. Blues
TTITLE2=Cotton Choppin' Blues
TTITLE3=Hot Dog Mama
TTITLE4=Dreamy Eyed Baby
TTITLE5=My Last Goodbye to You
TTITLE6=Don't You Want to Ride
TTITLE7=Don't You Be No Fool
TTITLE8=Just A Dream, No. 2
TTITLE9=Tell Me What I Done
TTITLE10=Oh, Yes
TTITLE11=I'm Still Your Sweetheart, Baby
TTITLE12=Down and Lost in Mind
TTITLE13=Let's Have a Little Fun
TTITLE14=Messed Up in Love
TTITLE15=Plow Hand Blues
TTITLE16=Jivin' Mr. Fuller Blues
TTITLE17=Make My Get Away
TTITLE18=Looking for My Baby
TTITLE19=I've Got to Dig You
TTITLE20=Leap Year Blues
TTITLE21=When I Had Money
TTITLE22=You Got to Hit the Right Lick
TTITLE23=What is That She Got
TTITLE24=Merry Go Round Blues
EXTD=
EXTT0=
EXTT1=
EXTT2=
EXTT3=
EXTT4=
EXTT5=
EXTT6=
EXTT7=
EXTT8=
EXTT9=
EXTT10=
EXTT11=
EXTT12=
EXTT13=
EXTT14=
EXTT15=
EXTT16=
EXTT17=
EXTT18=
EXTT19=
EXTT20=
EXTT21=
EXTT22=
EXTT23=
EXTT24=
PLAYORDER=
